<svg width="102" height="102" viewBox="0 0 102 102" fill="none" xmlns="http://www.w3.org/2000/svg">
<rect width="102" height="102" fill="#2C2C2C"/>
<g id="About Us" clip-path="url(#clip0_399_483)">
<rect width="1920" height="2676" transform="translate(-1440 -1819)" fill="#F1F1F1"/>
<g id="Partners">
<circle id="Ellipse 25" cx="51" cy="51" r="51" fill="#FCD900"/>
<path id="Become Partner" d="M21.7237 47V35.3636H25.9851C26.8108 35.3636 27.4946 35.5 28.0362 35.7727C28.5779 36.0417 28.9832 36.4072 29.2521 36.8693C29.5211 37.3277 29.6555 37.8447 29.6555 38.4205C29.6555 38.9053 29.5665 39.3144 29.3885 39.6477C29.2105 39.9773 28.9718 40.2424 28.6726 40.4432C28.3771 40.6402 28.0514 40.7841 27.6953 40.875V40.9886C28.0817 41.0076 28.4586 41.1326 28.826 41.3636C29.1972 41.5909 29.504 41.9148 29.7464 42.3352C29.9889 42.7557 30.1101 43.267 30.1101 43.8693C30.1101 44.464 29.9699 44.9981 29.6896 45.4716C29.4131 45.9413 28.9851 46.3144 28.4055 46.5909C27.826 46.8636 27.0855 47 26.1839 47H21.7237ZM23.4794 45.4943H26.0135C26.8544 45.4943 27.4567 45.3314 27.8203 45.0057C28.1839 44.6799 28.3658 44.2727 28.3658 43.7841C28.3658 43.4167 28.273 43.0795 28.0874 42.7727C27.9018 42.4659 27.6366 42.2216 27.2919 42.0398C26.951 41.858 26.5457 41.767 26.076 41.767H23.4794V45.4943ZM23.4794 40.3977H25.8317C26.2256 40.3977 26.5798 40.322 26.8942 40.1705C27.2124 40.0189 27.4643 39.8068 27.6499 39.5341C27.8393 39.2576 27.9339 38.9318 27.9339 38.5568C27.9339 38.0758 27.7654 37.6723 27.4283 37.3466C27.0911 37.0208 26.5741 36.858 25.8771 36.858H23.4794V40.3977ZM35.8175 47.1761C34.9576 47.1761 34.2171 46.9924 33.5959 46.625C32.9785 46.2538 32.5012 45.733 32.1641 45.0625C31.8307 44.3883 31.6641 43.5985 31.6641 42.6932C31.6641 41.7992 31.8307 41.0114 32.1641 40.3295C32.5012 39.6477 32.9709 39.1155 33.5732 38.733C34.1792 38.3504 34.8875 38.1591 35.6982 38.1591C36.1906 38.1591 36.6679 38.2405 37.13 38.4034C37.5921 38.5663 38.0069 38.822 38.3743 39.1705C38.7417 39.5189 39.0315 39.9716 39.2436 40.5284C39.4557 41.0814 39.5618 41.7538 39.5618 42.5455V43.1477H32.6243V41.875H37.897C37.897 41.428 37.8061 41.0322 37.6243 40.6875C37.4425 40.339 37.1868 40.0644 36.8572 39.8636C36.5315 39.6629 36.1489 39.5625 35.7095 39.5625C35.2322 39.5625 34.8156 39.6799 34.4595 39.9148C34.1072 40.1458 33.8345 40.4489 33.6413 40.8239C33.4519 41.1951 33.3572 41.5985 33.3572 42.0341V43.0284C33.3572 43.6117 33.4595 44.108 33.6641 44.517C33.8724 44.9261 34.1622 45.2386 34.5334 45.4545C34.9046 45.6667 35.3383 45.7727 35.8345 45.7727C36.1565 45.7727 36.45 45.7273 36.7152 45.6364C36.9804 45.5417 37.2095 45.4015 37.4027 45.2159C37.5959 45.0303 37.7436 44.8011 37.8459 44.5284L39.4538 44.8182C39.325 45.2917 39.094 45.7064 38.7607 46.0625C38.4311 46.4148 38.0163 46.6894 37.5163 46.8864C37.0201 47.0795 36.4538 47.1761 35.8175 47.1761ZM45.1229 47.1761C44.2782 47.1761 43.5509 46.9848 42.9411 46.6023C42.335 46.2159 41.8691 45.6837 41.5433 45.0057C41.2176 44.3277 41.0547 43.5511 41.0547 42.6761C41.0547 41.7898 41.2214 41.0076 41.5547 40.3295C41.888 39.6477 42.3577 39.1155 42.9638 38.733C43.5698 38.3504 44.2839 38.1591 45.1058 38.1591C45.7687 38.1591 46.3596 38.2822 46.8786 38.5284C47.3975 38.7708 47.8161 39.1117 48.1342 39.5511C48.4562 39.9905 48.6475 40.5038 48.7081 41.0909H47.0547C46.9638 40.6818 46.7554 40.3295 46.4297 40.0341C46.1077 39.7386 45.6759 39.5909 45.1342 39.5909C44.6607 39.5909 44.246 39.7159 43.8899 39.9659C43.5376 40.2121 43.263 40.5644 43.0661 41.0227C42.8691 41.4773 42.7706 42.0152 42.7706 42.6364C42.7706 43.2727 42.8672 43.822 43.0604 44.2841C43.2536 44.7462 43.5263 45.1042 43.8786 45.358C44.2346 45.6117 44.6532 45.7386 45.1342 45.7386C45.4562 45.7386 45.7479 45.6799 46.0092 45.5625C46.2744 45.4413 46.496 45.2689 46.674 45.0455C46.8558 44.822 46.9827 44.553 47.0547 44.2386H48.7081C48.6475 44.803 48.4638 45.3068 48.157 45.75C47.8501 46.1932 47.4392 46.5417 46.924 46.7955C46.4126 47.0492 45.8123 47.1761 45.1229 47.1761ZM54.201 47.1761C53.3828 47.1761 52.6688 46.9886 52.0589 46.6136C51.4491 46.2386 50.9756 45.714 50.6385 45.0398C50.3014 44.3655 50.1328 43.5777 50.1328 42.6761C50.1328 41.7708 50.3014 40.9792 50.6385 40.3011C50.9756 39.6231 51.4491 39.0966 52.0589 38.7216C52.6688 38.3466 53.3828 38.1591 54.201 38.1591C55.0192 38.1591 55.7332 38.3466 56.343 38.7216C56.9529 39.0966 57.4264 39.6231 57.7635 40.3011C58.1006 40.9792 58.2692 41.7708 58.2692 42.6761C58.2692 43.5777 58.1006 44.3655 57.7635 45.0398C57.4264 45.714 56.9529 46.2386 56.343 46.6136C55.7332 46.9886 55.0192 47.1761 54.201 47.1761ZM54.2067 45.75C54.737 45.75 55.1764 45.6098 55.5249 45.3295C55.8733 45.0492 56.1309 44.6761 56.2976 44.2102C56.468 43.7443 56.5533 43.2311 56.5533 42.6705C56.5533 42.1136 56.468 41.6023 56.2976 41.1364C56.1309 40.6667 55.8733 40.2898 55.5249 40.0057C55.1764 39.7216 54.737 39.5795 54.2067 39.5795C53.6726 39.5795 53.2294 39.7216 52.8771 40.0057C52.5286 40.2898 52.2692 40.6667 52.0987 41.1364C51.9321 41.6023 51.8487 42.1136 51.8487 42.6705C51.8487 43.2311 51.9321 43.7443 52.0987 44.2102C52.2692 44.6761 52.5286 45.0492 52.8771 45.3295C53.2294 45.6098 53.6726 45.75 54.2067 45.75ZM60.1655 47V38.2727H61.7962V39.6932H61.9041C62.0859 39.2121 62.3833 38.8371 62.7962 38.5682C63.209 38.2955 63.7034 38.1591 64.2791 38.1591C64.8625 38.1591 65.3511 38.2955 65.745 38.5682C66.1428 38.8409 66.4363 39.2159 66.6257 39.6932H66.7166C66.925 39.2273 67.2564 38.8561 67.7109 38.5795C68.1655 38.2992 68.7071 38.1591 69.3359 38.1591C70.1276 38.1591 70.7734 38.4072 71.2734 38.9034C71.7772 39.3996 72.0291 40.1477 72.0291 41.1477V47H70.3303V41.3068C70.3303 40.7159 70.1693 40.2879 69.8473 40.0227C69.5253 39.7576 69.1409 39.625 68.6939 39.625C68.1409 39.625 67.7109 39.7955 67.4041 40.1364C67.0973 40.4735 66.9439 40.9072 66.9439 41.4375V47H65.2507V41.1989C65.2507 40.7254 65.103 40.3447 64.8075 40.0568C64.5121 39.7689 64.1276 39.625 63.6541 39.625C63.3321 39.625 63.0348 39.7102 62.7621 39.8807C62.4931 40.0473 62.2753 40.2803 62.1087 40.5795C61.9458 40.8788 61.8643 41.2254 61.8643 41.6193V47H60.1655ZM78.0675 47.1761C77.2076 47.1761 76.4671 46.9924 75.8459 46.625C75.2285 46.2538 74.7512 45.733 74.4141 45.0625C74.0807 44.3883 73.9141 43.5985 73.9141 42.6932C73.9141 41.7992 74.0807 41.0114 74.4141 40.3295C74.7512 39.6477 75.2209 39.1155 75.8232 38.733C76.4292 38.3504 77.1375 38.1591 77.9482 38.1591C78.4406 38.1591 78.9179 38.2405 79.38 38.4034C79.8421 38.5663 80.2569 38.822 80.6243 39.1705C80.9917 39.5189 81.2815 39.9716 81.4936 40.5284C81.7057 41.0814 81.8118 41.7538 81.8118 42.5455V43.1477H74.8743V41.875H80.147C80.147 41.428 80.0561 41.0322 79.8743 40.6875C79.6925 40.339 79.4368 40.0644 79.1072 39.8636C78.7815 39.6629 78.3989 39.5625 77.9595 39.5625C77.4822 39.5625 77.0656 39.6799 76.7095 39.9148C76.3572 40.1458 76.0845 40.4489 75.8913 40.8239C75.7019 41.1951 75.6072 41.5985 75.6072 42.0341V43.0284C75.6072 43.6117 75.7095 44.108 75.9141 44.517C76.1224 44.9261 76.4122 45.2386 76.7834 45.4545C77.1546 45.6667 77.5883 45.7727 78.0845 45.7727C78.4065 45.7727 78.7 45.7273 78.9652 45.6364C79.2304 45.5417 79.4595 45.4015 79.6527 45.2159C79.8459 45.0303 79.9936 44.8011 80.0959 44.5284L81.7038 44.8182C81.575 45.2917 81.344 45.7064 81.0107 46.0625C80.6811 46.4148 80.2663 46.6894 79.7663 46.8864C79.2701 47.0795 78.7038 47.1761 78.0675 47.1761ZM24.294 66V54.3636H28.4418C29.3471 54.3636 30.0971 54.5284 30.6918 54.858C31.2865 55.1875 31.7315 55.6383 32.027 56.2102C32.3224 56.7784 32.4702 57.4186 32.4702 58.1307C32.4702 58.8466 32.3205 59.4905 32.0213 60.0625C31.7259 60.6307 31.2789 61.0814 30.6804 61.4148C30.0857 61.7443 29.3376 61.9091 28.4361 61.9091H25.5838V60.4205H28.277C28.849 60.4205 29.313 60.322 29.669 60.125C30.0251 59.9242 30.2865 59.6515 30.4531 59.3068C30.6198 58.9621 30.7031 58.5701 30.7031 58.1307C30.7031 57.6913 30.6198 57.3011 30.4531 56.9602C30.2865 56.6193 30.0232 56.3523 29.6634 56.1591C29.3073 55.9659 28.8376 55.8693 28.2543 55.8693H26.0497V66H24.294ZM36.8537 66.1932C36.3007 66.1932 35.8007 66.0909 35.3537 65.8864C34.9067 65.678 34.5526 65.3769 34.2912 64.983C34.0336 64.589 33.9048 64.1061 33.9048 63.5341C33.9048 63.0417 33.9995 62.6364 34.1889 62.3182C34.3783 62 34.634 61.7481 34.956 61.5625C35.2779 61.3769 35.6378 61.2367 36.0355 61.142C36.4332 61.0473 36.8385 60.9754 37.2514 60.9261C37.7741 60.8655 38.1984 60.8163 38.5241 60.7784C38.8499 60.7367 39.0866 60.6705 39.2344 60.5795C39.3821 60.4886 39.456 60.3409 39.456 60.1364V60.0966C39.456 59.6004 39.3158 59.2159 39.0355 58.9432C38.759 58.6705 38.3461 58.5341 37.7969 58.5341C37.2249 58.5341 36.7741 58.661 36.4446 58.9148C36.1188 59.1648 35.8935 59.4432 35.7685 59.75L34.1719 59.3864C34.3613 58.8561 34.6378 58.428 35.0014 58.1023C35.3688 57.7727 35.7912 57.5341 36.2685 57.3864C36.7457 57.2348 37.2476 57.1591 37.7741 57.1591C38.1226 57.1591 38.492 57.2008 38.8821 57.2841C39.276 57.3636 39.6435 57.5114 39.9844 57.7273C40.3291 57.9432 40.6113 58.2519 40.831 58.6534C41.0507 59.0511 41.1605 59.5682 41.1605 60.2045V66H39.5014V64.8068H39.4332C39.3234 65.0265 39.1586 65.2424 38.9389 65.4545C38.7192 65.6667 38.437 65.8428 38.0923 65.983C37.7476 66.1231 37.3348 66.1932 36.8537 66.1932ZM37.223 64.8295C37.6927 64.8295 38.0942 64.7367 38.4276 64.5511C38.7647 64.3655 39.0204 64.1231 39.1946 63.8239C39.3726 63.5208 39.4616 63.197 39.4616 62.8523V61.7273C39.401 61.7879 39.2836 61.8447 39.1094 61.8977C38.9389 61.947 38.7438 61.9905 38.5241 62.0284C38.3045 62.0625 38.0904 62.0947 37.8821 62.125C37.6738 62.1515 37.4995 62.1742 37.3594 62.1932C37.0298 62.2348 36.7287 62.3049 36.456 62.4034C36.187 62.5019 35.9711 62.6439 35.8082 62.8295C35.6491 63.0114 35.5696 63.2538 35.5696 63.5568C35.5696 63.9773 35.7249 64.2955 36.0355 64.5114C36.3461 64.7235 36.742 64.8295 37.223 64.8295ZM43.4233 66V57.2727H45.0653V58.6591H45.1562C45.3153 58.1894 45.5956 57.8201 45.9972 57.5511C46.4025 57.2784 46.8608 57.142 47.3722 57.142C47.4782 57.142 47.6032 57.1458 47.7472 57.1534C47.8949 57.161 48.0104 57.1705 48.0938 57.1818V58.8068C48.0256 58.7879 47.9044 58.767 47.7301 58.7443C47.5559 58.7178 47.3816 58.7045 47.2074 58.7045C46.8059 58.7045 46.4479 58.7898 46.1335 58.9602C45.8229 59.1269 45.5767 59.3598 45.3949 59.6591C45.2131 59.9545 45.1222 60.2917 45.1222 60.6705V66H43.4233ZM54.1534 57.2727V58.6364H49.3864V57.2727H54.1534ZM50.6648 55.1818H52.3636V63.4375C52.3636 63.767 52.4129 64.0152 52.5114 64.1818C52.6098 64.3447 52.7367 64.4564 52.892 64.517C53.0511 64.5739 53.2235 64.6023 53.4091 64.6023C53.5455 64.6023 53.6648 64.5928 53.767 64.5739C53.8693 64.5549 53.9489 64.5398 54.0057 64.5284L54.3125 65.9318C54.214 65.9697 54.0739 66.0076 53.892 66.0455C53.7102 66.0871 53.483 66.1098 53.2102 66.1136C52.7633 66.1212 52.3466 66.0417 51.9602 65.875C51.5739 65.7083 51.2614 65.4508 51.0227 65.1023C50.7841 64.7538 50.6648 64.3163 50.6648 63.7898V55.1818ZM57.7315 60.8182V66H56.0327V57.2727H57.6634V58.6932H57.7713C57.9721 58.2311 58.2865 57.8598 58.7145 57.5795C59.1463 57.2992 59.6899 57.1591 60.3452 57.1591C60.9399 57.1591 61.4607 57.2841 61.9077 57.5341C62.3546 57.7803 62.7012 58.1477 62.9474 58.6364C63.1937 59.125 63.3168 59.7292 63.3168 60.4489V66H61.6179V60.6534C61.6179 60.0208 61.4531 59.5265 61.1236 59.1705C60.794 58.8106 60.3414 58.6307 59.7656 58.6307C59.3717 58.6307 59.0213 58.7159 58.7145 58.8864C58.4115 59.0568 58.1709 59.3068 57.9929 59.6364C57.8187 59.9621 57.7315 60.3561 57.7315 60.8182ZM69.3565 66.1761C68.4967 66.1761 67.7562 65.9924 67.1349 65.625C66.5175 65.2538 66.0402 64.733 65.7031 64.0625C65.3698 63.3883 65.2031 62.5985 65.2031 61.6932C65.2031 60.7992 65.3698 60.0114 65.7031 59.3295C66.0402 58.6477 66.5099 58.1155 67.1122 57.733C67.7183 57.3504 68.4266 57.1591 69.2372 57.1591C69.7296 57.1591 70.2069 57.2405 70.669 57.4034C71.1312 57.5663 71.5459 57.822 71.9134 58.1705C72.2808 58.5189 72.5705 58.9716 72.7827 59.5284C72.9948 60.0814 73.1009 60.7538 73.1009 61.5455V62.1477H66.1634V60.875H71.4361C71.4361 60.428 71.3452 60.0322 71.1634 59.6875C70.9815 59.339 70.7259 59.0644 70.3963 58.8636C70.0705 58.6629 69.688 58.5625 69.2486 58.5625C68.7713 58.5625 68.3546 58.6799 67.9986 58.9148C67.6463 59.1458 67.3736 59.4489 67.1804 59.8239C66.991 60.1951 66.8963 60.5985 66.8963 61.0341V62.0284C66.8963 62.6117 66.9986 63.108 67.2031 63.517C67.4115 63.9261 67.7012 64.2386 68.0724 64.4545C68.4437 64.6667 68.8774 64.7727 69.3736 64.7727C69.6955 64.7727 69.9891 64.7273 70.2543 64.6364C70.5194 64.5417 70.7486 64.4015 70.9418 64.2159C71.1349 64.0303 71.2827 63.8011 71.3849 63.5284L72.9929 63.8182C72.8641 64.2917 72.633 64.7064 72.2997 65.0625C71.9702 65.4148 71.5554 65.6894 71.0554 65.8864C70.5592 66.0795 69.9929 66.1761 69.3565 66.1761ZM74.9858 66V57.2727H76.6278V58.6591H76.7188C76.8778 58.1894 77.1581 57.8201 77.5597 57.5511C77.965 57.2784 78.4233 57.142 78.9347 57.142C79.0407 57.142 79.1657 57.1458 79.3097 57.1534C79.4574 57.161 79.5729 57.1705 79.6562 57.1818V58.8068C79.5881 58.7879 79.4669 58.767 79.2926 58.7443C79.1184 58.7178 78.9441 58.7045 78.7699 58.7045C78.3684 58.7045 78.0104 58.7898 77.696 58.9602C77.3854 59.1269 77.1392 59.3598 76.9574 59.6591C76.7756 59.9545 76.6847 60.2917 76.6847 60.6705V66H74.9858Z" fill="black"/>
</g>
</g>
<defs>
<clipPath id="clip0_399_483">
<rect width="1920" height="2676" fill="white" transform="translate(-1440 -1819)"/>
</clipPath>
</defs>
</svg>
