<?xml version="1.0" encoding="UTF-8"?>
<!DOCTYPE svg PUBLIC "-//W3C//DTD SVG 1.1//EN" "http://www.w3.org/Graphics/SVG/1.1/DTD/svg11.dtd">
<svg xmlns="http://www.w3.org/2000/svg" version="1.1" width="512px" height="512px" style="shape-rendering:geometricPrecision; text-rendering:geometricPrecision; image-rendering:optimizeQuality; fill-rule:evenodd; clip-rule:evenodd" xmlns:xlink="http://www.w3.org/1999/xlink">
<g><path style="opacity:0.999" fill="#f3d45a" d="M 87.5,-0.5 C 179.167,-0.5 270.833,-0.5 362.5,-0.5C 339.111,4.38825 324.277,18.3883 318,41.5C 314.546,68.6293 325.379,86.9627 350.5,96.5C 259.833,96.5 169.167,96.5 78.5,96.5C 59.4039,91.9018 47.9039,79.9018 44,60.5C 41.321,27.8427 55.821,7.5094 87.5,-0.5 Z"/></g>
<g><path style="opacity:0.997" fill="#f19c1f" d="M 362.5,-0.5 C 369.167,-0.5 375.833,-0.5 382.5,-0.5C 402.761,4.57578 417.594,16.5758 427,35.5C 428.937,39.6457 430.271,43.979 431,48.5C 448.746,196.798 466.246,345.131 483.5,493.5C 483.496,498.552 481.829,502.885 478.5,506.5C 460.205,490.708 442.038,474.708 424,458.5C 423.667,372.167 423.333,285.833 423,199.5C 417.333,191.5 411.667,191.5 406,199.5C 405.833,285.502 405.333,371.502 404.5,457.5C 381.457,475.555 358.457,493.555 335.5,511.5C 331.833,511.5 328.167,511.5 324.5,511.5C 331.049,509.454 335.549,505.12 338,498.5C 355.196,365.358 372.362,232.358 389.5,99.5C 389.343,100.873 389.51,102.207 390,103.5C 406.88,92.2103 413.213,76.5437 409,56.5C 399.809,33.1538 383.309,25.3205 359.5,33C 351.417,37.5696 346.75,44.4029 345.5,53.5C 346.046,62.8922 350.713,66.0589 359.5,63C 362.712,60.2689 364.212,56.7689 364,52.5C 364.833,51 366,49.8333 367.5,49C 378.888,45.6072 387.055,49.4406 392,60.5C 394.048,66.3587 393.882,72.0253 391.5,77.5C 381.874,92.0629 368.207,98.3962 350.5,96.5C 325.379,86.9627 314.546,68.6293 318,41.5C 324.277,18.3883 339.111,4.38825 362.5,-0.5 Z"/></g>
<g><path style="opacity:1" fill="#e57e24" d="M 389.5,99.5 C 390.002,92.1506 390.669,84.8173 391.5,77.5C 393.882,72.0253 394.048,66.3587 392,60.5C 387.055,49.4406 378.888,45.6072 367.5,49C 366,49.8333 364.833,51 364,52.5C 364.212,56.7689 362.712,60.2689 359.5,63C 350.713,66.0589 346.046,62.8922 345.5,53.5C 346.75,44.4029 351.417,37.5696 359.5,33C 383.309,25.3205 399.809,33.1538 409,56.5C 413.213,76.5437 406.88,92.2103 390,103.5C 389.51,102.207 389.343,100.873 389.5,99.5 Z"/></g>
<g><path style="opacity:0.999" fill="#f0c419" d="M 391.5,77.5 C 390.669,84.8173 390.002,92.1506 389.5,99.5C 372.362,232.358 355.196,365.358 338,498.5C 335.549,505.12 331.049,509.454 324.5,511.5C 229.5,511.5 134.5,511.5 39.5,511.5C 32.0338,507.923 28.0338,501.923 27.5,493.5C 44.5831,361.168 61.5831,228.835 78.5,96.5C 169.167,96.5 259.833,96.5 350.5,96.5C 368.207,98.3962 381.874,92.0629 391.5,77.5 Z"/></g>
<g><path style="opacity:1" fill="#e57e24" d="M 478.5,506.5 C 476.343,508.412 474.009,510.079 471.5,511.5C 426.167,511.5 380.833,511.5 335.5,511.5C 358.457,493.555 381.457,475.555 404.5,457.5C 405.333,371.502 405.833,285.502 406,199.5C 411.667,191.5 417.333,191.5 423,199.5C 423.333,285.833 423.667,372.167 424,458.5C 442.038,474.708 460.205,490.708 478.5,506.5 Z"/></g>
<g><path style="opacity:1" fill="#f8e9af" d="M 70.5,406.5 C 77.6027,405.202 81.6027,408.035 82.5,415C 80.1695,432.475 78.1695,449.975 76.5,467.5C 98.8358,467.333 121.169,467.5 143.5,468C 149.372,471.016 150.872,475.516 148,481.5C 147.097,482.701 145.931,483.535 144.5,484C 116.413,484.983 88.4135,484.649 60.5,483C 58.1119,480.694 57.1119,477.861 57.5,474.5C 59.9186,454.151 62.4186,433.818 65,413.5C 65.9668,410.379 67.8001,408.046 70.5,406.5 Z"/></g>
</svg>
